<svg xmlns="http://www.w3.org/2000/svg" xmlns:xlink="http://www.w3.org/1999/xlink" version="1.1" x="0px" y="0px" viewBox="0 0 100 100" enable-background="new 0 0 100 100" xml:space="preserve"><path d="M5,52c-0.8,0-1.5-0.7-1.5-1.5v-1C3.5,48.7,4.2,48,5,48s1.5,0.7,1.5,1.5v1C6.5,51.3,5.8,52,5,52z"></path><path d="M11,51.5c-0.4,0-0.8-0.2-1.1-0.4c-0.3-0.3-0.4-0.7-0.4-1.1c0-0.4,0.2-0.8,0.4-1.1c0.6-0.6,1.6-0.6,2.1,0  c0.3,0.3,0.4,0.7,0.4,1.1c0,0.4-0.2,0.8-0.4,1.1C11.8,51.3,11.4,51.5,11,51.5z"></path><path d="M17,66.5c-0.8,0-1.5-0.7-1.5-1.5V35c0-0.8,0.7-1.5,1.5-1.5s1.5,0.7,1.5,1.5v30C18.5,65.8,17.8,66.5,17,66.5z"></path><path d="M29,76.5c-0.8,0-1.5-0.7-1.5-1.5V25c0-0.8,0.7-1.5,1.5-1.5s1.5,0.7,1.5,1.5v50C30.5,75.8,29.8,76.5,29,76.5z"></path><path d="M23,81.5c-0.8,0-1.5-0.7-1.5-1.5V20c0-0.8,0.7-1.5,1.5-1.5s1.5,0.7,1.5,1.5v60C24.5,80.8,23.8,81.5,23,81.5z"></path><path d="M35,68.5c-0.8,0-1.5-0.7-1.5-1.5V33c0-0.8,0.7-1.5,1.5-1.5s1.5,0.7,1.5,1.5v34C36.5,67.8,35.8,68.5,35,68.5z"></path><path d="M41,61c-0.8,0-1.5-0.7-1.5-1.5v-19c0-0.8,0.7-1.5,1.5-1.5s1.5,0.7,1.5,1.5v19C42.5,60.3,41.8,61,41,61z"></path><path d="M47,56c-0.8,0-1.5-0.7-1.5-1.5v-9c0-0.8,0.7-1.5,1.5-1.5s1.5,0.7,1.5,1.5v9C48.5,55.3,47.8,56,47,56z"></path><path d="M53,58.5c-0.8,0-1.5-0.7-1.5-1.5V43c0-0.8,0.7-1.5,1.5-1.5s1.5,0.7,1.5,1.5v14C54.5,57.8,53.8,58.5,53,58.5z"></path><path d="M59,54.5c-0.8,0-1.5-0.7-1.5-1.5v-6c0-0.8,0.7-1.5,1.5-1.5s1.5,0.7,1.5,1.5v6C60.5,53.8,59.8,54.5,59,54.5z"></path><path d="M65,53c-0.8,0-1.5-0.7-1.5-1.5v-3c0-0.8,0.7-1.5,1.5-1.5s1.5,0.7,1.5,1.5v3C66.5,52.3,65.8,53,65,53z"></path><path d="M71,51.5c-0.4,0-0.8-0.2-1.1-0.4c-0.1-0.1-0.2-0.3-0.3-0.5c-0.1-0.2-0.1-0.4-0.1-0.6c0-0.1,0-0.2,0-0.3c0-0.1,0-0.2,0.1-0.3  c0-0.1,0.1-0.2,0.1-0.3c0.1-0.1,0.1-0.2,0.2-0.2c0.1-0.1,0.1-0.1,0.2-0.2c0.1-0.1,0.2-0.1,0.3-0.1c0.1,0,0.2-0.1,0.3-0.1  c0.2,0,0.4,0,0.6,0c0.1,0,0.2,0,0.3,0.1c0.1,0,0.2,0.1,0.3,0.1c0.1,0.1,0.2,0.1,0.2,0.2c0.1,0.1,0.1,0.1,0.2,0.2  c0,0.1,0.1,0.2,0.1,0.3c0,0.1,0.1,0.2,0.1,0.3c0,0.1,0,0.2,0,0.3c0,0.2,0,0.4-0.1,0.6c-0.1,0.2-0.2,0.4-0.3,0.5  c-0.1,0.1-0.3,0.2-0.5,0.3C71.4,51.5,71.2,51.5,71,51.5z"></path><path d="M77,52c-0.8,0-1.5-0.7-1.5-1.5v-1c0-0.8,0.7-1.5,1.5-1.5s1.5,0.7,1.5,1.5v1C78.5,51.3,77.8,52,77,52z"></path><path d="M89,52c-0.8,0-1.5-0.7-1.5-1.5v-1c0-0.8,0.7-1.5,1.5-1.5s1.5,0.7,1.5,1.5v1C90.5,51.3,89.8,52,89,52z"></path><path d="M83,51.5c-0.4,0-0.8-0.2-1.1-0.4c-0.3-0.3-0.4-0.7-0.4-1.1c0-0.1,0-0.2,0-0.3c0-0.1,0-0.2,0.1-0.3c0-0.1,0.1-0.2,0.1-0.3  c0.1-0.1,0.1-0.2,0.2-0.2c0.4-0.4,0.9-0.5,1.4-0.4c0.1,0,0.2,0,0.3,0.1c0.1,0,0.2,0.1,0.3,0.1c0.1,0.1,0.2,0.1,0.2,0.2  c0.3,0.3,0.4,0.7,0.4,1.1c0,0.4-0.2,0.8-0.4,1.1c-0.1,0.1-0.3,0.2-0.5,0.3C83.4,51.5,83.2,51.5,83,51.5z"></path><path d="M95,51.5c-0.4,0-0.8-0.2-1.1-0.4c-0.1-0.1-0.2-0.3-0.3-0.5c-0.1-0.2-0.1-0.4-0.1-0.6c0-0.4,0.2-0.8,0.4-1.1  c0.6-0.6,1.6-0.6,2.1,0c0.3,0.3,0.4,0.7,0.4,1.1c0,0.2,0,0.4-0.1,0.6c-0.1,0.2-0.2,0.4-0.3,0.5C95.8,51.3,95.4,51.5,95,51.5z"></path></svg>