<svg xmlns="http://www.w3.org/2000/svg" xmlns:xlink="http://www.w3.org/1999/xlink" version="1.1" x="0px" y="0px" viewBox="0 0 100 100" enable-background="new 0 0 100 100" xml:space="preserve"><path d="M83.8,75.384c-1.956-12.337-12.232-21.665-23.952-25.115c5.036-5.578,7.716-14.676,7.726-20.844  c0.015-9.456-7.786-19.278-17.729-19.278c-9.943,0-17.744,9.822-17.729,19.278c0.01,6.195,2.712,15.345,7.791,20.917  c-11.617,3.507-21.765,12.791-23.707,25.042c-0.804,5.074,5.118,8.442,8.95,10.167c7.518,3.383,16.105,4.535,24.285,4.595  c8.279,0.06,16.935-1.011,24.616-4.248C78.077,84.2,84.651,80.752,83.8,75.384z"></path></svg>