<svg xmlns="http://www.w3.org/2000/svg" xmlns:xlink="http://www.w3.org/1999/xlink" version="1.1" x="0px" y="0px" viewBox="0 0 100 100" enable-background="new 0 0 100 100" xml:space="preserve"><g><g><circle fill="#000000" cx="50.001" cy="55.321" r="13.3"></circle><path fill="#000000" d="M87.604,26.445H12.397c-2.761,0-5,2.239-5,5v47.752c0,2.762,2.239,5,5,5h75.206c2.762,0,5-2.238,5-5    V31.445C92.604,28.684,90.365,26.445,87.604,26.445z M50.001,72.605c-9.544,0-17.284-7.74-17.284-17.285    c0-9.544,7.739-17.283,17.284-17.283c9.545,0,17.283,7.738,17.283,17.283C67.284,64.865,59.546,72.605,50.001,72.605z"></path></g><path fill="#000000" d="M66.804,26.282c0,2.761-3.404,5-7.598,5H40.794c-4.194,0-7.596-2.239-7.596-5v-3.798   c0-2.762,3.401-5,7.596-5h18.412c4.193,0,7.598,2.238,7.598,5V26.282z"></path></g></svg>